<mxfile host="app.diagrams.net" modified="2023-10-23T14:20:14.830Z" agent="Mozilla/5.0 (Macintosh; Intel Mac OS X 10_15_7) AppleWebKit/537.36 (KHTML, like Gecko) Chrome/106.0.0.0 Safari/537.36" version="22.0.6" etag="ZhNpDM7vHr2c91kjrcBg" type="github">
  <diagram name="Page-1" id="d6d6Dn7NpZBTOlImqiAa">
    <mxGraphModel>
      <root>
        <mxCell id="0" />
        <mxCell id="1" parent="0" />
      </root>
    </mxGraphModel>
  </diagram>
</mxfile>
